<svg class="main-svg" xmlns="http://www.w3.org/2000/svg" xmlns:xlink="http://www.w3.org/1999/xlink" width="1200" height="600" style="" viewBox="0 0 1200 600"><rect x="0" y="0" width="1200" height="600" style="fill: rgb(255, 255, 255); fill-opacity: 1;"/><defs id="defs-b2deba"><g class="clips"><clipPath id="clipb2debaxyplot" class="plotclip"><rect width="1060" height="544"/></clipPath><clipPath class="axesclip" id="clipb2debax"><rect x="40" y="0" width="1060" height="600"/></clipPath><clipPath class="axesclip" id="clipb2debay"><rect x="0" y="16" width="1200" height="544"/></clipPath><clipPath class="axesclip" id="clipb2debaxy"><rect x="40" y="16" width="1060" height="544"/></clipPath></g><g class="gradients"/><g class="patterns"/></defs><g class="bglayer"/><g class="layer-below"><g class="imagelayer"/><g class="shapelayer"/></g><g class="cartesianlayer"><g class="subplot xy"><g class="layer-subplot"><g class="shapelayer"/><g class="imagelayer"/></g><g class="minor-gridlayer"><g class="x"/><g class="y"/></g><g class="gridlayer"><g class="x"><path class="xgrid crisp" transform="translate(207.47,0)" d="M0,16v544" style="stroke: rgb(238, 238, 238); stroke-opacity: 1; stroke-width: 1px;"/><path class="xgrid crisp" transform="translate(374.95,0)" d="M0,16v544" style="stroke: rgb(238, 238, 238); stroke-opacity: 1; stroke-width: 1px;"/><path class="xgrid crisp" transform="translate(542.4200000000001,0)" d="M0,16v544" style="stroke: rgb(238, 238, 238); stroke-opacity: 1; stroke-width: 1px;"/><path class="xgrid crisp" transform="translate(709.89,0)" d="M0,16v544" style="stroke: rgb(238, 238, 238); stroke-opacity: 1; stroke-width: 1px;"/><path class="xgrid crisp" transform="translate(877.36,0)" d="M0,16v544" style="stroke: rgb(238, 238, 238); stroke-opacity: 1; stroke-width: 1px;"/><path class="xgrid crisp" transform="translate(1044.8400000000001,0)" d="M0,16v544" style="stroke: rgb(238, 238, 238); stroke-opacity: 1; stroke-width: 1px;"/></g><g class="y"><path class="ygrid crisp" transform="translate(0,502.14)" d="M40,0h1060" style="stroke: rgb(238, 238, 238); stroke-opacity: 1; stroke-width: 1px;"/><path class="ygrid crisp" transform="translate(0,383.54)" d="M40,0h1060" style="stroke: rgb(238, 238, 238); stroke-opacity: 1; stroke-width: 1px;"/><path class="ygrid crisp" transform="translate(0,299.39)" d="M40,0h1060" style="stroke: rgb(238, 238, 238); stroke-opacity: 1; stroke-width: 1px;"/><path class="ygrid crisp" transform="translate(0,234.12)" d="M40,0h1060" style="stroke: rgb(238, 238, 238); stroke-opacity: 1; stroke-width: 1px;"/><path class="ygrid crisp" transform="translate(0,180.79)" d="M40,0h1060" style="stroke: rgb(238, 238, 238); stroke-opacity: 1; stroke-width: 1px;"/><path class="ygrid crisp" transform="translate(0,135.7)" d="M40,0h1060" style="stroke: rgb(238, 238, 238); stroke-opacity: 1; stroke-width: 1px;"/><path class="ygrid crisp" transform="translate(0,96.64)" d="M40,0h1060" style="stroke: rgb(238, 238, 238); stroke-opacity: 1; stroke-width: 1px;"/><path class="ygrid crisp" transform="translate(0,62.18)" d="M40,0h1060" style="stroke: rgb(238, 238, 238); stroke-opacity: 1; stroke-width: 1px;"/><path class="ygrid crisp" transform="translate(0,31.369999999999997)" d="M40,0h1060" style="stroke: rgb(238, 238, 238); stroke-opacity: 1; stroke-width: 1px;"/></g></g><g class="zerolinelayer"><path class="xzl zl crisp" transform="translate(40,0)" d="M0,16v544" style="stroke: rgb(238, 238, 238); stroke-opacity: 1; stroke-width: 1px;"/></g><g class="layer-between"><g class="shapelayer"/><g class="imagelayer"/></g><path class="xlines-below"/><path class="ylines-below"/><g class="overlines-below"/><g class="xaxislayer-below"/><g class="yaxislayer-below"/><g class="overaxes-below"/><g class="plot" transform="translate(40,16)"><g class="scatterlayer mlayer"><g class="trace scatter trace3d051b" style="stroke-miterlimit: 2; opacity: 1;"><g class="fills" clip-path="url(#clipb2debaxyplot)"/><g class="errorbars"/><g class="lines"><path class="js-line" d="M0,365.55L0.84,27.2L1.67,302.37L2.51,346.98L3.35,309.22L5.02,396.54L6.7,366.49L9.21,402.94L10.05,402.58L10.89,391.17L11.72,406.43L12.56,385.59L13.4,395.51L14.24,418.39L15.07,383.65L15.91,413.05L16.75,405.79L17.58,354.95L18.42,412.7L19.26,404.12L20.1,408.82L21.77,374.43L22.61,408.13L23.45,413.38L24.28,451.25L25.12,399.4L25.96,415.08L26.8,410.87L27.63,384.14L28.47,408.57L29.31,403.92L30.15,416.2L30.98,385.31L31.82,405.39L33.49,415.23L34.33,398.2L35.17,402.75L36.01,430.01L36.84,402.88L37.68,429.92L38.52,413.13L40.19,419.88L41.03,444.69L41.87,405.65L42.71,435.67L44.38,413.21L46.06,419.02L46.89,355.85L48.57,411.38L50.24,402.57L51.08,439.23L52.75,450.17L53.59,425.24L54.43,372.35L55.27,424.12L56.1,376.82L56.94,409.71L58.62,437.65L59.45,400.84L60.29,431.88L61.13,428.81L62.8,430.43L63.64,411.05L64.48,418.72L65.31,415.7L66.15,435.35L67.83,436.79L68.66,441.32L70.34,388.33L71.18,389.78L72.85,450.52L73.69,461.22L74.53,404.49L76.2,429.76L77.04,408.83L78.71,384L79.55,448.62L80.39,474.73L81.22,416.43L82.06,405.86L82.9,456.91L83.74,418.18L84.57,434L85.41,421.44L87.92,451.5L88.76,449.06L89.6,366.42L91.27,422.23L92.11,446.95L93.78,464.86L94.62,390L97.13,412.74L97.97,449.8L99.65,418.89L100.48,418.06L101.32,438.52L102.16,404.36L103.83,443.79L104.67,449.85L105.51,436.83L106.35,436.25L107.18,448.61L108.02,411.45L108.86,413.71L109.69,437.53L111.37,408.04L112.21,409.48L113.04,385.21L113.88,404.64L114.72,428.86L116.39,442.35L117.23,433.06L118.07,478.41L118.91,368.57L119.74,431.2L121.42,440.13L122.26,425.82L123.09,454.21L124.77,430.52L125.6,461.97L126.44,433.65L127.28,426.65L128.12,443.58L128.95,408.51L129.79,439.4L131.47,400.65L132.3,411.4L135.65,481.29L136.49,474.79L137.33,447.91L139,482.22L139.84,425.45L141.51,410.12L142.35,481.27L143.19,447.39L144.03,391.79L144.86,441.34L145.7,468.38L146.54,429.11L147.38,458.16L148.21,425.45L149.89,389.16L150.73,441.37L152.4,433.72L153.24,415.7L154.08,448.43L154.91,428.76L155.75,438.54L156.59,435.66L158.26,419.49L159.1,425.54L159.94,395.49L160.77,442.58L162.45,445.63L163.29,407.83L164.12,445.03L164.96,440.82L166.64,414.09L167.47,398.72L168.31,431.16L170.82,440.08L174.17,429.78L176.68,438.81L177.52,451.72L179.2,446.99L181.71,412.57L182.55,449.41L184.22,421.61L185.06,443.99L185.89,440.19L187.57,443.06L188.41,433.79L189.24,396.96L190.92,462.27L191.76,475.65L192.59,440.9L195.94,468.41L196.78,432.49L197.62,443.76L199.29,467.52L200.13,438.5L200.97,502.37L201.8,402.5L202.64,452.23L203.48,438.9L204.32,449.35L205.15,427.35L205.99,436.84L206.83,382.17L208.5,450.77L209.34,441.17L210.18,471.48L211.02,445.77L211.85,456.18L212.69,411.26L214.37,409.8L215.2,427.36L218.55,448.51L220.23,422.38L221.06,420.64L221.9,426.72L222.74,455.13L223.58,381.4L224.41,468.06L225.25,425.56L226.09,456.98L226.93,424.87L227.76,447.89L228.6,393.69L229.44,477.38L230.28,424.41L231.11,461.7L231.95,458.48L234.46,394.92L235.3,426.58L236.97,457.69L237.81,438.71L238.65,434.78L239.49,440.43L241.16,463.45L242,460.04L242.84,428.47L243.67,461.24L246.19,450.43L247.02,423.7L247.86,463.24L248.7,456.38L249.53,413.27L250.37,476.67L251.21,402.33L252.88,415.12L253.72,478.92L254.56,456.63L255.4,424.14L256.23,432.07L257.07,421.01L257.91,455.75L258.75,397.87L259.58,434.72L260.42,422.86L261.26,446.74L262.93,438.75L263.77,407.62L264.61,442.1L265.44,423.25L266.28,461.19L267.12,425.12L268.79,457.77L270.47,411.61L271.31,468L272.14,452.78L272.98,458.86L273.82,423.1L275.49,386.52L277.17,440.52L278.01,406.24L278.84,446.43L279.68,425.1L280.52,449.92L281.35,387.97L282.19,435.08L283.03,397.59L283.87,472.63L284.7,418.25L285.54,450.27L286.38,416.82L288.05,423.17L288.89,408.86L290.57,428.71L291.4,426.73L292.24,449.57L293.08,429.22L293.91,451.31L294.75,453L295.59,408.76L298.1,460.45L299.78,459.42L300.61,466.16L301.45,441.29L303.13,461.9L303.96,459.95L304.8,425.95L305.64,456.23L306.48,372.53L307.31,458.04L308.99,418.24L309.82,444.5L310.66,403.63L311.5,417.84L313.17,456.04L314.01,412.71L314.85,393.15L315.69,459.25L317.36,419.2L319.04,470.66L319.87,444.06L321.55,439.53L322.39,424.24L323.22,441.22L324.9,440.12L325.73,452.55L326.57,421.79L328.25,442.86L329.08,414.29L329.92,453.57L330.76,448.41L331.6,449.06L333.27,464.54L334.11,450.78L334.95,441.01L335.78,394.02L336.62,425.47L337.46,428.37L338.3,451.74L339.13,400.49L339.97,447.47L341.64,400.89L343.32,457.17L344.16,443.79L344.99,433.67L345.83,441.74L346.67,434.95L347.51,391.49L349.18,461.76L350.02,415.12L350.86,449.14L351.69,431.72L352.53,444.44L354.21,425.58L355.04,438.82L355.88,425.53L357.55,443.67L358.39,407.64L360.07,457.32L360.9,466.63L361.74,453.38L362.58,457.95L363.42,449.29L364.25,415.12L365.09,458.92L365.93,449.99L366.77,426.18L367.6,486.28L370.12,420.64L372.63,458.46L373.46,421.26L374.3,459.69L375.14,448.42L375.98,483.63L376.81,441.63L378.49,473.93L379.33,422.14L380.16,460.74L381,433.75L382.68,484.26L384.35,439.28L385.19,447.58L386.03,402.48L387.7,443.45L388.54,468.04L389.37,458.71L390.21,451.48L391.05,471.99L391.89,450.06L392.72,471.28L393.56,427.94L394.4,429.95L395.24,475.38L396.07,448.13L396.91,423.58L397.75,447.19L398.59,490.28L399.42,450.17L401.1,400.87L401.93,466.68L402.77,466.81L403.61,464.94L404.45,474.1L406.12,456.23L406.96,434.61L407.8,465.47L409.47,408.91L410.31,475.43L412.82,422.47L413.66,437.04L414.5,487.87L416.17,444.32L417.01,443.46L417.84,435.3L419.52,421.41L420.36,426.14L422.03,422.14L422.87,472.95L423.71,454.89L424.54,412.08L425.38,441.68L426.22,439.98L427.06,464.75L427.89,405.38L429.57,446.87L431.24,418.48L432.08,412.05L432.92,460.55L435.43,423.06L436.27,462.35L437.1,455.01L437.94,456.82L439.62,478.05L440.45,444.35L441.29,448.47L442.13,477.55L442.97,406.26L443.8,439.63L445.48,497.43L446.32,438.74L447.99,421.29L448.83,425.5L449.66,469.13L450.5,457.52L451.34,445.23L452.18,473.74L453.01,439.69L454.69,477.06L455.53,471.82L456.36,420.26L459.71,473.53L462.23,487.81L463.06,485.33L465.57,490.13L466.41,449.01L467.25,455.2L468.09,459.4L468.92,451.67L469.76,481.71L470.6,465.1L471.44,439.94L473.95,431.25L474.79,406.33L476.46,487.29L477.3,430.72L478.14,458.46L479.81,455.81L481.48,438.21L482.32,438.32L483.16,457.07L484,443.09L486.51,417.04L488.18,490.2L489.02,491.35L489.86,422.81L490.7,463.22L491.53,457.39L492.37,428.52L493.21,485.54L494.88,475.93L495.72,457.24L496.56,465.56L498.23,417.16L499.07,457.54L499.91,410.54L500.74,440.21L501.58,461.21L503.26,434.21L504.09,453.18L505.77,470.37L507.44,454.15L508.28,438.5L509.12,477.76L509.95,464.97L510.79,471.97L512.47,449.55L513.3,479.35L514.98,459.96L515.82,400.26L516.65,456.52L517.49,448.18L518.33,465.23L519.17,427.88L520.84,470.12L521.68,475.61L522.52,465.7L523.35,473.4L525.03,448.56L525.86,462.23L526.7,455.7L527.54,430.86L528.38,466.07L529.21,445.78L530.05,445.34L530.89,415.27L531.73,481.73L533.4,434.9L534.24,440.52L535.08,464.43L536.75,445.51L537.59,436.3L538.43,463.92L539.26,425.94L540.94,448.08L542.61,474.99L543.45,442.3L545.12,425.04L545.96,494.98L546.8,445.45L547.64,467.13L548.47,454.41L549.31,466.06L550.99,454.31L551.82,491.09L554.34,430.04L555.17,474.98L556.01,449.14L556.85,471.12L558.52,460.03L559.36,466.96L561.03,505.78L561.87,499.46L562.71,493.8L563.55,464.15L564.38,416.49L565.22,474.83L566.06,486L566.9,463.55L567.73,455.17L568.57,435.78L569.41,446.83L570.25,501.43L571.92,423.24L572.76,461.89L573.59,466.86L574.43,459.37L576.11,449.23L576.94,458.06L577.78,479.83L578.62,442.54L579.46,464.46L580.29,446.73L581.13,471.53L582.81,455.47L584.48,463.11L585.32,491.51L586.16,420.8L586.99,476.71L587.83,494.35L588.67,456.41L589.5,438.69L591.18,447.6L592.02,422.69L592.85,434.31L593.69,488.12L594.53,484.1L596.2,471.4L597.04,457.45L598.72,481.12L599.55,464.26L600.39,443.08L602.07,498.25L603.74,460.88L604.58,462.44L605.41,404.65L606.25,495.69L607.09,416.31L608.76,453.32L609.6,419.13L610.44,424.17L611.28,483.48L612.11,457.22L612.95,496.31L616.3,465.89L617.14,455.13L617.97,462.66L618.81,467.12L619.65,497.79L620.49,451.49L621.32,454.31L622.16,483.41L623,450.58L623.84,472.58L624.67,464.2L625.51,506.79L627.19,459.04L628.02,401.76L628.86,435.2L631.37,462.49L632.21,422.25L633.05,480.83L633.88,451.29L634.72,465.38L635.56,461.84L636.4,463.7L637.23,404.11L638.07,461.33L639.75,457.4L640.58,428.14L641.42,481.43L642.26,465.87L643.93,477.68L645.61,443.95L646.45,435.44L647.28,443.49L648.12,464.67L648.96,494.07L649.79,415.1L650.63,427.38L651.47,459.95L653.14,479.58L653.98,429.57L655.66,492.8L657.33,405.73L658.17,430.3L659.84,455.98L661.52,461.23L662.36,483.08L664.03,464.93L664.87,490.98L667.38,417.65L668.22,463.89L669.05,461.39L669.89,452.43L672.4,479.45L674.08,476.72L674.92,427.24L676.59,490.46L678.27,440.03L679.1,480.31L679.94,479.57L680.78,474.47L681.61,458.24L684.13,475.4L684.96,472.23L685.8,463.51L686.64,462.26L688.31,479L689.15,481.4L689.99,449.01L690.83,507.47L691.66,466.19L692.5,451.56L694.18,406.73L695.01,463.12L695.85,442.43L697.52,469.81L698.36,415.7L700.04,516.03L700.87,441.95L701.71,459.32L702.55,438.03L704.22,491.07L705.06,480.19L705.9,471.11L708.41,428.52L709.25,467.81L710.09,459.12L711.76,433.36L713.43,489.83L714.27,423.43L715.11,489.21L715.95,419.86L716.78,491.47L717.62,496.85L718.46,437.96L719.3,504.92L720.13,472.77L721.81,436.91L723.48,496.5L724.32,495.09L725.16,480.62L726.83,458.88L727.67,416.73L728.51,464.27L729.34,448.31L730.18,475.21L731.02,434.15L731.86,479.25L732.69,478.63L734.37,450.93L736.04,462.6L736.88,441.22L737.72,470.96L739.39,480.77L741.07,480.18L741.9,460.42L742.74,395.5L744.42,481.52L745.25,448.34L746.09,464.69L746.93,450.69L748.6,450.29L749.44,478.63L750.28,451.87L751.95,486.28L752.79,443.45L753.63,466.42L755.3,491.25L756.14,461.13L756.98,451.94L758.65,489.21L759.49,461.99L761.16,468.22L762,465.92L762.84,466.05L763.68,461.21L764.51,495L765.35,437.66L766.19,495.33L767.86,452.27L768.7,513.65L770.38,452.08L771.21,496.11L772.05,511.64L772.89,456.04L773.72,484.88L774.56,477.51L775.4,487.65L776.24,471.07L777.07,475.91L777.91,446.2L778.75,468.53L779.59,431.03L780.42,487.8L782.1,492.61L782.94,504.49L783.77,452.34L784.61,510.9L785.45,481.2L786.29,490.69L787.12,455.24L787.96,454.5L788.8,468.23L789.63,479.03L790.47,471.46L791.31,473.97L792.15,509.95L794.66,464.16L795.5,499.26L798.01,424.6L798.85,499.04L799.68,458.87L800.52,478.13L801.36,479.53L803.03,494.28L803.87,474.11L804.71,483.19L805.54,481.04L806.38,488.33L807.22,450.64L808.06,490.07L808.89,493.68L809.73,503.25L810.57,487.02L811.41,499.99L813.08,441.61L813.92,440.52L814.76,454.74L815.59,493.64L816.43,462.72L818.11,477.29L819.78,432.1L820.62,489.95L821.45,465.93L822.29,483.97L823.13,472.65L823.97,417.56L825.64,440.47L827.32,475.8L828.15,488.07L828.99,449.32L832.34,478.87L833.18,471.46L834.85,452.18L835.69,475.81L837.36,430.95L838.2,469.21L839.04,499.14L840.71,481.58L842.39,472.75L844.06,445.9L844.9,476.5L845.74,425.21L846.58,494.59L847.41,471.55L849.92,442.75L851.6,465.81L852.44,442.81L853.27,483.68L854.11,468.94L854.95,480.13L855.79,474.83L856.62,460.84L858.3,490.53L859.14,454.78L859.97,445.29L860.81,470.58L861.65,502.72L863.32,430.97L864.16,487.01L865,447.42L865.83,427.92L866.67,455.65L869.18,458.5L870.02,479.03L871.7,505.81L872.53,470.68L873.37,478.98L874.21,450.01L875.05,445.38L875.88,451.88L877.56,492.61L878.4,477.52L880.07,439.78L880.91,501.4L881.74,473.11L883.42,468.08L884.26,500.74L885.09,499.96L885.93,447.44L886.77,497.67L887.61,497.32L888.44,486.84L889.28,475.62L890.12,444.17L890.96,489.44L891.79,418.51L892.63,461.48L895.14,452.5L895.98,447.3L896.82,478.4L897.65,457.42L898.49,458.58L899.33,502.5L900.17,432.86L901,512.9L901.84,509.7L902.68,496.21L903.52,459.8L904.35,496.73L905.19,475.34L906.03,461.71L906.87,471.41L908.54,491.65L909.38,480.56L910.22,468.03L911.05,498.28L911.89,504.91L912.73,455.22L913.56,467.04L914.4,505.98L915.24,503.8L917.75,456.13L918.59,437.59L919.43,464L923.61,453.1L924.45,472.41L925.29,484.79L926.13,462.57L928.64,507.53L929.47,470.55L931.15,439.65L931.99,465.29L933.66,483.95L934.5,469.97L935.34,465.53L936.17,474.7L938.69,497.57L939.52,486.14L941.2,449.53L942.04,463.64L942.87,506.2L943.71,405.53L944.55,465.44L945.38,460.07L947.06,478.99L947.9,503.64L948.73,488.01L949.57,500.51L950.41,466.15L951.25,493.85L952.08,461.05L952.92,473.53L954.6,485.94L955.43,468.45L957.94,475.41L958.78,483.89L960.46,516.01L961.29,484.41L962.13,459.9L962.97,474.34L963.81,499.09L964.64,493.14L965.48,444.47L967.16,452.72L967.99,490.11L968.83,471.81L969.67,486.25L971.34,468.67L972.18,484.84L973.02,433.53L973.85,486.35L974.69,449.55L976.37,487.44L978.04,450.53L978.88,500.75L979.72,472.26L980.55,466.47L982.23,487.07L983.07,479.03L983.9,496.18L984.74,423.89L985.58,493.87L986.42,476.01L987.25,415.35L988.93,461.19L990.6,468.46L991.44,506.3L992.28,490.17L993.95,479.5L994.79,516.8L995.63,421.06L996.46,507.71L998.14,465.12L998.98,495.39L1003.16,440.83L1004,483.31" clip-path="url(#clipb2debaxyplot)" style="vector-effect: none; fill: none; stroke: rgb(234, 223, 245); stroke-opacity: 1; stroke-width: 1.5px; opacity: 1;"/></g><g class="points" clip-path="url(#clipb2debaxyplot)"/><g class="text" clip-path="url(#clipb2debaxyplot)"/></g><g class="trace scatter trace1e5b93" style="stroke-miterlimit: 2; opacity: 1;"><g class="fills" clip-path="url(#clipb2debaxyplot)"/><g class="errorbars"/><g class="lines"><path class="js-line" d="M0,365.55L0.84,27.2L1.67,302.37L2.51,346.98L3.35,309.22L5.02,396.54L6.7,366.49L9.21,402.94L10.05,402.58L10.89,391.17L11.72,406.43L12.56,385.59L13.4,395.51L14.24,418.39L15.07,383.65L15.91,413.05L16.75,405.79L17.58,354.95L18.42,412.7L19.26,404.12L20.1,408.82L21.77,374.43L22.61,408.13L23.45,413.38L24.28,451.25L25.12,399.4L25.96,415.08L26.8,410.87L27.63,384.14L28.47,408.57L29.31,403.92L30.15,416.2L30.98,385.31L31.82,405.39L33.49,415.23L34.33,398.2L35.17,402.75L36.01,430.01L36.84,402.88L37.68,429.92L38.52,413.13L40.19,419.88L41.03,444.69L41.87,405.65L42.71,435.67L44.38,413.21L46.06,419.02L46.89,355.85L48.57,411.38L50.24,402.57L51.08,439.23L52.75,450.17L53.59,425.24L54.43,372.35L55.27,424.12L56.1,376.82L56.94,409.71L58.62,437.65L59.45,400.84L60.29,431.88L61.13,428.81L62.8,430.43L63.64,411.05L64.48,418.72L65.31,415.7L66.15,435.35L67.83,436.79L68.66,441.32L70.34,388.33L71.18,389.78L72.85,450.52L73.69,461.22L74.53,404.49L76.2,429.76L77.04,408.83L78.71,384L79.55,448.62L80.39,474.73L81.22,416.43L82.06,405.86L82.9,456.91L83.74,418.18L84.57,434L85.41,421.44L87.92,451.5L88.76,449.06L89.6,366.42L91.27,422.23L92.11,446.95L93.78,464.86L94.62,390L97.13,412.74L97.97,449.8L99.65,418.89L100.48,418.06L101.32,438.52L102.16,404.36L103.83,443.79L104.67,449.85L105.51,436.83L106.35,436.25L107.18,448.61L108.02,411.45L108.86,413.71L109.69,437.53L111.37,408.04L112.21,409.48L113.04,385.21L113.88,404.64L114.72,428.86L116.39,442.35L117.23,433.06L118.07,478.41L118.91,368.57L119.74,431.2L121.42,440.13L122.26,425.82L123.09,454.21L124.77,430.52L125.6,461.97L126.44,433.65L127.28,426.65L128.12,443.58L128.95,408.51L129.79,439.4L131.47,400.65L132.3,411.4L135.65,481.29L136.49,474.79L137.33,447.91L139,482.22L139.84,425.45L141.51,410.12L142.35,481.27L143.19,447.39L144.03,391.79L144.86,441.34L145.7,468.38L146.54,429.11L147.38,458.16L148.21,425.45L149.89,389.16L150.73,441.37L152.4,433.72L153.24,415.7L154.08,448.43L154.91,428.76L155.75,438.54L156.59,435.66L158.26,419.49L159.1,425.54L159.94,395.49L160.77,442.58L162.45,445.63L163.29,407.83L164.12,445.03L164.96,440.82L166.64,414.09L167.47,398.72L168.31,431.16L170.82,440.08L174.17,429.78L176.68,438.81L177.52,451.72L179.2,446.99L181.71,412.57L182.55,449.41L184.22,421.61L185.06,443.99L185.89,440.19L187.57,443.06L188.41,433.79L189.24,396.96L190.92,462.27L191.76,475.65L192.59,440.9L195.94,468.41L196.78,432.49L197.62,443.76L199.29,467.52L200.13,438.5L200.97,502.37L201.8,402.5L202.64,452.23L203.48,438.9L204.32,449.35L205.15,427.35L205.99,436.84L206.83,382.17L208.5,450.77L209.34,441.17L210.18,471.48L211.02,445.77L211.85,456.18L212.69,411.26L214.37,409.8L215.2,427.36L218.55,448.51L220.23,422.38L221.06,420.64L221.9,426.72L222.74,455.13L223.58,381.4L224.41,468.06L225.25,425.56L226.09,456.98L226.93,424.87L227.76,447.89L228.6,393.69L229.44,477.38L230.28,424.41L231.11,461.7L231.95,458.48L234.46,394.92L235.3,426.58L236.97,457.69L237.81,438.71L238.65,434.78L239.49,440.43L241.16,463.45L242,460.04L242.84,428.47L243.67,461.24L246.19,450.43L247.02,423.7L247.86,463.24L248.7,456.38L249.53,413.27L250.37,476.67L251.21,402.33L252.88,415.12L253.72,478.92L254.56,456.63L255.4,424.14L256.23,432.07L257.07,421.01L257.91,455.75L258.75,397.87L259.58,434.72L260.42,422.86L261.26,446.74L262.93,438.75L263.77,407.62L264.61,442.1L265.44,423.25L266.28,461.19L267.12,425.12L268.79,457.77L270.47,411.61L271.31,468L272.14,452.78L272.98,458.86L273.82,423.1L275.49,386.52L277.17,440.52L278.01,406.24L278.84,446.43L279.68,425.1L280.52,449.92L281.35,387.97L282.19,435.08L283.03,397.59L283.87,472.63L284.7,418.25L285.54,450.27L286.38,416.82L288.05,423.17L288.89,408.86L290.57,428.71L291.4,426.73L292.24,449.57L293.08,429.22L293.91,451.31L294.75,453L295.59,408.76L298.1,460.45L299.78,459.42L300.61,466.16L301.45,441.29L303.13,461.9L303.96,459.95L304.8,425.95L305.64,456.23L306.48,372.53L307.31,458.04L308.99,418.24L309.82,444.5L310.66,403.63L311.5,417.84L313.17,456.04L314.01,412.71L314.85,393.15L315.69,459.25L317.36,419.2L319.04,470.66L319.87,444.06L321.55,439.53L322.39,424.24L323.22,441.22L324.9,440.12L325.73,452.55L326.57,421.79L328.25,442.86L329.08,414.29L329.92,453.57L330.76,448.41L331.6,449.06L333.27,464.54L334.11,450.78L334.95,441.01L335.78,394.02L336.62,425.47L337.46,428.37L338.3,451.74L339.13,400.49L339.97,447.47L341.64,400.89L343.32,457.17L344.16,443.79L344.99,433.67L345.83,441.74L346.67,434.95L347.51,391.49L349.18,461.76L350.02,415.12L350.86,449.14L351.69,431.72L352.53,444.44L354.21,425.58L355.04,438.82L355.88,425.53L357.55,443.67L358.39,407.64L360.07,457.32L360.9,466.63L361.74,453.38L362.58,457.95L363.42,449.29L364.25,415.12L365.09,458.92L365.93,449.99L366.77,426.18L367.6,486.28L370.12,420.64L372.63,458.46L373.46,421.26L374.3,459.69L375.14,448.42L375.98,483.63L376.81,441.63L378.49,473.93L379.33,422.14L380.16,460.74L381,433.75L382.68,484.26L384.35,439.28L385.19,447.58L386.03,402.48L387.7,443.45L388.54,468.04L389.37,458.71L390.21,451.48L391.05,471.99L391.89,450.06L392.72,471.28L393.56,427.94L394.4,429.95L395.24,475.38L396.07,448.13L396.91,423.58L397.75,447.19L398.59,490.28L399.42,450.17L401.1,400.87L401.93,466.68L402.77,466.81L403.61,464.94L404.45,474.1L406.12,456.23L406.96,434.61L407.8,465.47L409.47,408.91L410.31,475.43L412.82,422.47L413.66,437.04L414.5,487.87L416.17,444.32L417.01,443.46L417.84,435.3L419.52,421.41L420.36,426.14L422.03,422.14L422.87,472.95L423.71,454.89L424.54,412.08L425.38,441.68L426.22,439.98L427.06,464.75L427.89,405.38L429.57,446.87L431.24,418.48L432.08,412.05L432.92,460.55L435.43,423.06L436.27,462.35L437.1,455.01L437.94,456.82L439.62,478.05L440.45,444.35L441.29,448.47L442.13,477.55L442.97,406.26L443.8,439.63L445.48,497.43L446.32,438.74L447.99,421.29L448.83,425.5L449.66,469.13L450.5,457.52L451.34,445.23L452.18,473.74L453.01,439.69L454.69,477.06L455.53,471.82L456.36,420.26L459.71,473.53L462.23,487.81L463.06,485.33L465.57,490.13L466.41,449.01L467.25,455.2L468.09,459.4L468.92,451.67L469.76,481.71L470.6,465.1L471.44,439.94L473.95,431.25L474.79,406.33L476.46,487.29L477.3,430.72L478.14,458.46L479.81,455.81L481.48,438.21L482.32,438.32L483.16,457.07L484,443.09L486.51,417.04L488.18,490.2L489.02,491.35L489.86,422.81L490.7,463.22L491.53,457.39L492.37,428.52L493.21,485.54L494.88,475.93L495.72,457.24L496.56,465.56L498.23,417.16L499.07,457.54L499.91,410.54L500.74,440.21L501.58,461.21L503.26,434.21L504.09,453.18L505.77,470.37L507.44,454.15L508.28,438.5L509.12,477.76L509.95,464.97L510.79,471.97L512.47,449.55L513.3,479.35L514.98,459.96L515.82,400.26L516.65,456.52L517.49,448.18L518.33,465.23L519.17,427.88L520.84,470.12L521.68,475.61L522.52,465.7L523.35,473.4L525.03,448.56L525.86,462.23L526.7,455.7L527.54,430.86L528.38,466.07L529.21,445.78L530.05,445.34L530.89,415.27L531.73,481.73L533.4,434.9L534.24,440.52L535.08,464.43L536.75,445.51L537.59,436.3L538.43,463.92L539.26,425.94L540.94,448.08L542.61,474.99L543.45,442.3L545.12,425.04L545.96,494.98L546.8,445.45L547.64,467.13L548.47,454.41L549.31,466.06L550.99,454.31L551.82,491.09L554.34,430.04L555.17,474.98L556.01,449.14L556.85,471.12L558.52,460.03L559.36,466.96L561.03,505.78L561.87,499.46L562.71,493.8L563.55,464.15L564.38,416.49L565.22,474.83L566.06,486L566.9,463.55L567.73,455.17L568.57,435.78L569.41,446.83L570.25,501.43L571.92,423.24L572.76,461.89L573.59,466.86L574.43,459.37L576.11,449.23L576.94,458.06L577.78,479.83L578.62,442.54L579.46,464.46L580.29,446.73L581.13,471.53L582.81,455.47L584.48,463.11L585.32,491.51L586.16,420.8L586.99,476.71L587.83,494.35L588.67,456.41L589.5,438.69L591.18,447.6L592.02,422.69L592.85,434.31L593.69,488.12L594.53,484.1L596.2,471.4L597.04,457.45L598.72,481.12L599.55,464.26L600.39,443.08L602.07,498.25L603.74,460.88L604.58,462.44L605.41,404.65L606.25,495.69L607.09,416.31L608.76,453.32L609.6,419.13L610.44,424.17L611.28,483.48L612.11,457.22L612.95,496.31L616.3,465.89L617.14,455.13L617.97,462.66L618.81,467.12L619.65,497.79L620.49,451.49L621.32,454.31L622.16,483.41L623,450.58L623.84,472.58L624.67,464.2L625.51,506.79L627.19,459.04L628.02,401.76L628.86,435.2L631.37,462.49L632.21,422.25L633.05,480.83L633.88,451.29L634.72,465.38L635.56,461.84L636.4,463.7L637.23,404.11L638.07,461.33L639.75,457.4L640.58,428.14L641.42,481.43L642.26,465.87L643.93,477.68L645.61,443.95L646.45,435.44L647.28,443.49L648.12,464.67L648.96,494.07L649.79,415.1L650.63,427.38L651.47,459.95L653.14,479.58L653.98,429.57L655.66,492.8L657.33,405.73L658.17,430.3L659.84,455.98L661.52,461.23L662.36,483.08L664.03,464.93L664.87,490.98L667.38,417.65L668.22,463.89L669.05,461.39L669.89,452.43L672.4,479.45L674.08,476.72L674.92,427.24L676.59,490.46L678.27,440.03L679.1,480.31L679.94,479.57L680.78,474.47L681.61,458.24L684.13,475.4L684.96,472.23L685.8,463.51L686.64,462.26L688.31,479L689.15,481.4L689.99,449.01L690.83,507.47L691.66,466.19L692.5,451.56L694.18,406.73L695.01,463.12L695.85,442.43L697.52,469.81L698.36,415.7L700.04,516.03L700.87,441.95L701.71,459.32L702.55,438.03L704.22,491.07L705.06,480.19L705.9,471.11L708.41,428.52L709.25,467.81L710.09,459.12L711.76,433.36L713.43,489.83L714.27,423.43L715.11,489.21L715.95,419.86L716.78,491.47L717.62,496.85L718.46,437.96L719.3,504.92L720.13,472.77L721.81,436.91L723.48,496.5L724.32,495.09L725.16,480.62L726.83,458.88L727.67,416.73L728.51,464.27L729.34,448.31L730.18,475.21L731.02,434.15L731.86,479.25L732.69,478.63L734.37,450.93L736.04,462.6L736.88,441.22L737.72,470.96L739.39,480.77L741.07,480.18L741.9,460.42L742.74,395.5L744.42,481.52L745.25,448.34L746.09,464.69L746.93,450.69L748.6,450.29L749.44,478.63L750.28,451.87L751.95,486.28L752.79,443.45L753.63,466.42L755.3,491.25L756.14,461.13L756.98,451.94L758.65,489.21L759.49,461.99L761.16,468.22L762,465.92L762.84,466.05L763.68,461.21L764.51,495L765.35,437.66L766.19,495.33L767.86,452.27L768.7,513.65L770.38,452.08L771.21,496.11L772.05,511.64L772.89,456.04L773.72,484.88L774.56,477.51L775.4,487.65L776.24,471.07L777.07,475.91L777.91,446.2L778.75,468.53L779.59,431.03L780.42,487.8L782.1,492.61L782.94,504.49L783.77,452.34L784.61,510.9L785.45,481.2L786.29,490.69L787.12,455.24L787.96,454.5L788.8,468.23L789.63,479.03L790.47,471.46L791.31,473.97L792.15,509.95L794.66,464.16L795.5,499.26L798.01,424.6L798.85,499.04L799.68,458.87L800.52,478.13L801.36,479.53L803.03,494.28L803.87,474.11L804.71,483.19L805.54,481.04L806.38,488.33L807.22,450.64L808.06,490.07L808.89,493.68L809.73,503.25L810.57,487.02L811.41,499.99L813.08,441.61L813.92,440.52L814.76,454.74L815.59,493.64L816.43,462.72L818.11,477.29L819.78,432.1L820.62,489.95L821.45,465.93L822.29,483.97L823.13,472.65L823.97,417.56L825.64,440.47L827.32,475.8L828.15,488.07L828.99,449.32L832.34,478.87L833.18,471.46L834.85,452.18L835.69,475.81L837.36,430.95L838.2,469.21L839.04,499.14L840.71,481.58L842.39,472.75L844.06,445.9L844.9,476.5L845.74,425.21L846.58,494.59L847.41,471.55L849.92,442.75L851.6,465.81L852.44,442.81L853.27,483.68L854.11,468.94L854.95,480.13L855.79,474.83L856.62,460.84L858.3,490.53L859.14,454.78L859.97,445.29L860.81,470.58L861.65,502.72L863.32,430.97L864.16,487.01L865,447.42L865.83,427.92L866.67,455.65L869.18,458.5L870.02,479.03L871.7,505.81L872.53,470.68L873.37,478.98L874.21,450.01L875.05,445.38L875.88,451.88L877.56,492.61L878.4,477.52L880.07,439.78L880.91,501.4L881.74,473.11L883.42,468.08L884.26,500.74L885.09,499.96L885.93,447.44L886.77,497.67L887.61,497.32L888.44,486.84L889.28,475.62L890.12,444.17L890.96,489.44L891.79,418.51L892.63,461.48L895.14,452.5L895.98,447.3L896.82,478.4L897.65,457.42L898.49,458.58L899.33,502.5L900.17,432.86L901,512.9L901.84,509.7L902.68,496.21L903.52,459.8L904.35,496.73L905.19,475.34L906.03,461.71L906.87,471.41L908.54,491.65L909.38,480.56L910.22,468.03L911.05,498.28L911.89,504.91L912.73,455.22L913.56,467.04L914.4,505.98L915.24,503.8L917.75,456.13L918.59,437.59L919.43,464L923.61,453.1L924.45,472.41L925.29,484.79L926.13,462.57L928.64,507.53L929.47,470.55L931.15,439.65L931.99,465.29L933.66,483.95L934.5,469.97L935.34,465.53L936.17,474.7L938.69,497.57L939.52,486.14L941.2,449.53L942.04,463.64L942.87,506.2L943.71,405.53L944.55,465.44L945.38,460.07L947.06,478.99L947.9,503.64L948.73,488.01L949.57,500.51L950.41,466.15L951.25,493.85L952.08,461.05L952.92,473.53L954.6,485.94L955.43,468.45L957.94,475.41L958.78,483.89L960.46,516.01L961.29,484.41L962.13,459.9L962.97,474.34L963.81,499.09L964.64,493.14L965.48,444.47L967.16,452.72L967.99,490.11L968.83,471.81L969.67,486.25L971.34,468.67L972.18,484.84L973.02,433.53L973.85,486.35L974.69,449.55L976.37,487.44L978.04,450.53L978.88,500.75L979.72,472.26L980.55,466.47L982.23,487.07L983.07,479.03L983.9,496.18L984.74,423.89L985.58,493.87L986.42,476.01L987.25,415.35L988.93,461.19L990.6,468.46L991.44,506.3L992.28,490.17L993.95,479.5L994.79,516.8L995.63,421.06L996.46,507.71L998.14,465.12L998.98,495.39L1003.16,440.83L1004,483.31" clip-path="url(#clipb2debaxyplot)" style="vector-effect: none; fill: none; stroke: rgb(148, 95, 207); stroke-opacity: 1; stroke-width: 1.5px; opacity: 1;"/></g><g class="points" clip-path="url(#clipb2debaxyplot)"/><g class="text" clip-path="url(#clipb2debaxyplot)"/></g><g class="trace scatter trace096351" style="stroke-miterlimit: 2; opacity: 1;"><g class="fills" clip-path="url(#clipb2debaxyplot)"/><g class="errorbars"/><g class="lines"/><g class="points"><path class="point" transform="translate(1004,483.31)" d="M2,0A2,2 0 1,1 0,-2A2,2 0 0,1 2,0Z" style="opacity: 1; stroke-width: 0px; fill: rgb(148, 95, 207); fill-opacity: 1;"/></g><g class="text"/></g></g></g><g class="overplot"/><path class="xlines-above crisp" d="M0,0" style="fill: none;"/><path class="ylines-above crisp" d="M0,0" style="fill: none;"/><g class="overlines-above"/><g class="xaxislayer-above"><g class="xtick"><text text-anchor="middle" x="0" y="585" transform="translate(40,0)" style="font-family: Roboto, sans-serif; font-size: 12px; fill: rgb(95, 103, 126); fill-opacity: 1; white-space: pre; opacity: 1;">0</text></g><g class="xtick"><text text-anchor="middle" x="0" y="585" style="font-family: Roboto, sans-serif; font-size: 12px; fill: rgb(95, 103, 126); fill-opacity: 1; white-space: pre; opacity: 1;" transform="translate(207.47,0)">200</text></g><g class="xtick"><text text-anchor="middle" x="0" y="585" style="font-family: Roboto, sans-serif; font-size: 12px; fill: rgb(95, 103, 126); fill-opacity: 1; white-space: pre; opacity: 1;" transform="translate(374.95,0)">400</text></g><g class="xtick"><text text-anchor="middle" x="0" y="585" style="font-family: Roboto, sans-serif; font-size: 12px; fill: rgb(95, 103, 126); fill-opacity: 1; white-space: pre; opacity: 1;" transform="translate(542.4200000000001,0)">600</text></g><g class="xtick"><text text-anchor="middle" x="0" y="585" style="font-family: Roboto, sans-serif; font-size: 12px; fill: rgb(95, 103, 126); fill-opacity: 1; white-space: pre; opacity: 1;" transform="translate(709.89,0)">800</text></g><g class="xtick"><text text-anchor="middle" x="0" y="585" style="font-family: Roboto, sans-serif; font-size: 12px; fill: rgb(95, 103, 126); fill-opacity: 1; white-space: pre; opacity: 1;" transform="translate(877.36,0)">1000</text></g><g class="xtick"><text text-anchor="middle" x="0" y="585" style="font-family: Roboto, sans-serif; font-size: 12px; fill: rgb(95, 103, 126); fill-opacity: 1; white-space: pre; opacity: 1;" transform="translate(1044.8400000000001,0)">1200</text></g></g><g class="yaxislayer-above"><g class="ytick"><text text-anchor="end" x="27" y="4.199999999999999" transform="translate(0,502.14)" style="font-family: Roboto, sans-serif; font-size: 12px; fill: rgb(95, 103, 126); fill-opacity: 1; white-space: pre; opacity: 1;">2</text></g><g class="ytick"><text text-anchor="end" x="27" y="4.199999999999999" style="font-family: Roboto, sans-serif; font-size: 12px; fill: rgb(95, 103, 126); fill-opacity: 1; white-space: pre; opacity: 1;" transform="translate(0,383.54)">3</text></g><g class="ytick"><text text-anchor="end" x="27" y="4.199999999999999" style="font-family: Roboto, sans-serif; font-size: 12px; fill: rgb(95, 103, 126); fill-opacity: 1; white-space: pre; opacity: 1;" transform="translate(0,299.39)">4</text></g><g class="ytick"><text text-anchor="end" x="27" y="4.199999999999999" style="font-family: Roboto, sans-serif; font-size: 12px; fill: rgb(95, 103, 126); fill-opacity: 1; white-space: pre; opacity: 1;" transform="translate(0,234.12)">5</text></g><g class="ytick"><text text-anchor="end" x="27" y="4.199999999999999" style="font-family: Roboto, sans-serif; font-size: 12px; fill: rgb(95, 103, 126); fill-opacity: 1; white-space: pre; opacity: 1;" transform="translate(0,180.79)">6</text></g><g class="ytick"><text text-anchor="end" x="27" y="4.199999999999999" style="font-family: Roboto, sans-serif; font-size: 12px; fill: rgb(95, 103, 126); fill-opacity: 1; white-space: pre; opacity: 1;" transform="translate(0,135.7)">7</text></g><g class="ytick"><text text-anchor="end" x="27" y="4.199999999999999" style="font-family: Roboto, sans-serif; font-size: 12px; fill: rgb(95, 103, 126); fill-opacity: 1; white-space: pre; opacity: 1;" transform="translate(0,96.64)">8</text></g><g class="ytick"><text text-anchor="end" x="27" y="4.199999999999999" style="font-family: Roboto, sans-serif; font-size: 12px; fill: rgb(95, 103, 126); fill-opacity: 1; white-space: pre; opacity: 1;" transform="translate(0,62.18)">9</text></g><g class="ytick"><text text-anchor="end" x="27" y="4.199999999999999" style="font-family: Roboto, sans-serif; font-size: 12px; fill: rgb(95, 103, 126); fill-opacity: 1; white-space: pre; opacity: 1;" transform="translate(0,31.369999999999997)">10</text></g></g><g class="overaxes-above"/></g></g><g class="polarlayer"/><g class="smithlayer"/><g class="ternarylayer"/><g class="geolayer"/><g class="funnelarealayer"/><g class="pielayer"/><g class="iciclelayer"/><g class="treemaplayer"/><g class="sunburstlayer"/><g class="glimages"/><defs id="topdefs-b2deba"><g class="clips"/></defs><g class="layer-above"><g class="imagelayer"/><g class="shapelayer"/></g><g class="infolayer"><g class="g-gtitle"/><g class="g-xtitle"/><g class="g-ytitle"/></g></svg>