<svg class="main-svg" xmlns="http://www.w3.org/2000/svg" xmlns:xlink="http://www.w3.org/1999/xlink" width="1200" height="600" style="" viewBox="0 0 1200 600"><rect x="0" y="0" width="1200" height="600" style="fill: rgb(255, 255, 255); fill-opacity: 1;"/><defs id="defs-5b97cd"><g class="clips"><clipPath id="clip5b97cdxyplot" class="plotclip"><rect width="1060" height="544"/></clipPath><clipPath class="axesclip" id="clip5b97cdx"><rect x="40" y="0" width="1060" height="600"/></clipPath><clipPath class="axesclip" id="clip5b97cdy"><rect x="0" y="16" width="1200" height="544"/></clipPath><clipPath class="axesclip" id="clip5b97cdxy"><rect x="40" y="16" width="1060" height="544"/></clipPath></g><g class="gradients"/><g class="patterns"/></defs><g class="bglayer"/><g class="layer-below"><g class="imagelayer"/><g class="shapelayer"/></g><g class="cartesianlayer"><g class="subplot xy"><g class="layer-subplot"><g class="shapelayer"/><g class="imagelayer"/></g><g class="minor-gridlayer"><g class="x"/><g class="y"/></g><g class="gridlayer"><g class="x"><path class="xgrid crisp" transform="translate(207.47,0)" d="M0,16v544" style="stroke: rgb(238, 238, 238); stroke-opacity: 1; stroke-width: 1px;"/><path class="xgrid crisp" transform="translate(374.95,0)" d="M0,16v544" style="stroke: rgb(238, 238, 238); stroke-opacity: 1; stroke-width: 1px;"/><path class="xgrid crisp" transform="translate(542.4200000000001,0)" d="M0,16v544" style="stroke: rgb(238, 238, 238); stroke-opacity: 1; stroke-width: 1px;"/><path class="xgrid crisp" transform="translate(709.89,0)" d="M0,16v544" style="stroke: rgb(238, 238, 238); stroke-opacity: 1; stroke-width: 1px;"/><path class="xgrid crisp" transform="translate(877.36,0)" d="M0,16v544" style="stroke: rgb(238, 238, 238); stroke-opacity: 1; stroke-width: 1px;"/><path class="xgrid crisp" transform="translate(1044.8400000000001,0)" d="M0,16v544" style="stroke: rgb(238, 238, 238); stroke-opacity: 1; stroke-width: 1px;"/></g><g class="y"><path class="ygrid crisp" transform="translate(0,532.8)" d="M40,0h1060" style="stroke: rgb(238, 238, 238); stroke-opacity: 1; stroke-width: 1px;"/><path class="ygrid crisp" transform="translate(0,467.52)" d="M40,0h1060" style="stroke: rgb(238, 238, 238); stroke-opacity: 1; stroke-width: 1px;"/><path class="ygrid crisp" transform="translate(0,402.24)" d="M40,0h1060" style="stroke: rgb(238, 238, 238); stroke-opacity: 1; stroke-width: 1px;"/><path class="ygrid crisp" transform="translate(0,336.96)" d="M40,0h1060" style="stroke: rgb(238, 238, 238); stroke-opacity: 1; stroke-width: 1px;"/><path class="ygrid crisp" transform="translate(0,271.68)" d="M40,0h1060" style="stroke: rgb(238, 238, 238); stroke-opacity: 1; stroke-width: 1px;"/><path class="ygrid crisp" transform="translate(0,206.4)" d="M40,0h1060" style="stroke: rgb(238, 238, 238); stroke-opacity: 1; stroke-width: 1px;"/><path class="ygrid crisp" transform="translate(0,141.12)" d="M40,0h1060" style="stroke: rgb(238, 238, 238); stroke-opacity: 1; stroke-width: 1px;"/><path class="ygrid crisp" transform="translate(0,75.84)" d="M40,0h1060" style="stroke: rgb(238, 238, 238); stroke-opacity: 1; stroke-width: 1px;"/></g></g><g class="zerolinelayer"><path class="xzl zl crisp" transform="translate(40,0)" d="M0,16v544" style="stroke: rgb(238, 238, 238); stroke-opacity: 1; stroke-width: 1px;"/></g><g class="layer-between"><g class="shapelayer"/><g class="imagelayer"/></g><path class="xlines-below"/><path class="ylines-below"/><g class="overlines-below"/><g class="xaxislayer-below"/><g class="yaxislayer-below"/><g class="overaxes-below"/><g class="plot" transform="translate(40,16)"><g class="scatterlayer mlayer"><g class="trace scatter traced56b74" style="stroke-miterlimit: 2; opacity: 1;"><g class="fills" clip-path="url(#clip5b97cdxyplot)"/><g class="errorbars"/><g class="lines"><path class="js-line" d="M0,516.8L2.51,443.36L7.54,435.2L9.21,440.64L10.89,423.54L15.91,415.62L16.75,415.77L20.1,411.05L25.96,392.36L27.63,392.96L28.47,391.84L30.98,393.11L36.84,340.54L39.36,357.68L41.03,343.81L41.87,356.57L42.71,340L46.89,349.76L49.4,353.6L52.75,354.96L54.43,352.34L55.27,352.39L56.94,354.73L57.78,354.69L58.62,353.6L60.29,353.6L61.96,348.94L64.48,345.87L67.83,320.96L74.53,334.02L75.36,329.86L76.2,326.4L77.04,333.51L77.87,327.95L78.71,336.19L84.57,313.54L86.25,314.16L87.09,315.74L90.44,319.83L92.11,320.96L94.62,323.84L95.46,323.76L97.97,316.67L98.81,313.43L103,312.8L103.83,307.9L107.18,306.45L108.02,320.96L109.69,318.24L113.88,340.16L115.56,334.7L116.39,332.38L118.91,345.09L123.09,333.78L123.93,335.59L130.63,334.19L133.14,330.75L134.82,304.64L137.33,314.43L138.17,331.84L141.51,343.81L144.03,336.02L145.7,320.96L150.73,341.17L151.56,340.25L153.24,346.8L155.75,342.72L156.59,339.61L158.26,337.28L159.94,333.2L160.77,328.87L163.29,328.21L164.12,324.49L164.96,326.11L167.47,386.24L169.15,364.48L169.98,369.92L171.66,348.16L172.5,353.6L175.85,335.8L180.03,341.36L185.06,323.93L185.89,325.22L186.73,323.68L187.57,324.88L195.94,293.92L196.78,291.95L200.13,286.69L201.8,190.4L205.15,223.04L205.99,213.71L206.83,235.28L209.34,252.71L216.88,276.9L220.23,272L221.06,264.82L223.58,272L226.93,265.88L229.44,266.87L230.28,270.19L231.95,271.14L232.79,270.74L235.3,369.92L239.49,251.02L245.35,241.69L249.53,243.65L250.37,242.62L251.21,244.8L252.88,254.26L254.56,255.68L255.4,259.45L256.23,259.31L259.58,266.21L263.77,263.84L272.14,282.88L278.84,260.34L281.35,263.36L283.87,254.05L285.54,255.68L286.38,259.94L288.89,259.45L294.75,244.8L298.1,245.98L305.64,255.68L306.48,265.01L308.15,237.55L311.5,248.15L313.17,244.8L314.01,247.52L315.69,250.24L317.36,247.52L319.04,242.33L322.39,235.59L326.57,232.52L329.08,235.52L331.6,232.74L332.43,235.07L334.11,232.02L335.78,272L339.97,265.01L343.32,243.81L344.16,250.24L346.67,242.62L350.02,253.96L353.37,257.1L355.88,251.91L356.72,252.05L357.55,251.02L359.23,254.59L360.07,254.63L362.58,250.88L366.77,246.47L368.44,386.24L370.95,296.48L374.3,243.44L376.81,237.88L377.65,242.08L381,223.04L382.68,219.41L383.51,217.89L386.03,209.69L386.86,210.27L388.54,204.76L392.72,195.84L393.56,200.93L402.77,157.76L403.61,114.24L404.45,133.28L405.28,131.65L409.47,183.87L411.15,176.8L411.98,175.34L412.82,181.07L413.66,190.4L417.84,185.5L418.68,193.51L421.19,204L422.03,203.46L424.54,200.89L427.06,194.61L428.73,194.36L432.92,192.98L433.75,193.75L435.43,223.04L436.27,190.4L439.62,179.52L441.29,186.32L442.13,183.15L444.64,182.24L445.48,167.8L449.66,165.01L450.5,164.63L454.69,178.16L455.53,178.65L458.04,185.74L459.71,186.05L462.23,180.51L467.25,171.99L470.6,114.24L471.44,141.44L473.11,152.32L477.3,169.63L479.81,164.75L484,154.32L486.51,157.76L489.86,152.74L491.53,153.1L492.37,155.51L493.21,154.5L495.72,153.8L496.56,151.04L499.91,153.47L502.42,223.04L504.93,182.24L511.63,127.84L513.3,134.45L514.14,129.47L514.98,127.16L515.82,132.8L518.33,138.18L520,136.99L521.68,130.56L523.35,128.89L525.86,129.62L526.7,131.65L530.05,131.84L530.89,133.51L531.73,131.47L534.24,133.49L536.75,125.12L539.26,151.23L540.1,157.76L543.45,151.23L545.12,155.04L547.64,146.88L549.31,144.32L550.99,147.45L559.36,133L561.03,132.49L562.71,127.1L563.55,128.96L565.22,132.37L566.9,130.27L568.57,131.65L569.41,190.4L574.43,143.77L576.94,141.44L577.78,136.99L579.46,140.18L580.29,141.44L582.81,142.4L584.48,145.73L587.83,135.05L588.67,134.64L590.34,135.16L593.69,139.26L599.55,134.82L602.07,134.1L603.74,92.48L604.58,114.24L605.41,108.8L606.25,85.95L607.09,103.36L607.93,97.14L608.76,100.64L611.28,119.19L612.95,115.08L616.3,113.6L617.14,117.87L617.97,116.53L620.49,116.22L621.32,116.61L622.16,114.24L625.51,113.46L626.35,110.49L629.7,117.21L633.05,115.42L633.88,115.67L638.91,165.92L640.58,163.2L643.93,138.18L646.45,150.23L648.12,146.88L651.47,149.17L653.14,143.77L653.98,145.89L656.49,142.09L659.01,149.6L659.84,147.63L660.68,151.23L662.36,148.58L664.87,140.97L667.38,138L670.73,190.4L673.24,144.7L674.08,136L677.43,147.97L680.78,136.78L682.45,139.4L684.13,137.81L689.99,130.34L691.66,123.91L692.5,125.12L693.34,125.12L694.18,127.3L695.85,129.2L697.52,128.96L700.87,125.12L701.71,125.96L702.55,125.12L705.9,92.48L706.74,105.54L710.09,121.49L718.46,111.38L719.3,105.54L721.81,105.25L724.32,107.54L727.67,106.62L729.34,108.8L733.53,107.48L736.04,109.62L740.23,118.59L742.74,133.28L745.25,139.96L746.09,138.72L746.93,140.18L748.6,140.35L756.14,125.12L756.98,125.12L760.33,125.12L762.84,124.1L764.51,124.16L773.72,72.9L774.56,76.16L777.07,74.35L779.59,92.48L781.26,92.48L783.77,94.4L787.12,94.03L787.96,98.41L789.63,99.28L790.47,101.62L795.5,97.74L796.33,97.58L799.68,107.89L803.03,105.54L803.87,59.84L805.54,70.72L806.38,68L808.06,76.16L809.73,72.08L810.57,70.72L811.41,66.37L812.24,71.71L816.43,84.32L817.27,90.56L818.11,88.85L819.78,97.38L823.13,96.56L824.8,100.01L826.48,98.31L828.15,99.01L828.99,101.96L831.5,104L832.34,102.74L833.18,102.45L834.02,101.3L835.69,103.36L837.36,157.76L838.2,125.12L839.88,133.28L841.55,119.68L844.9,121.86L845.74,125.12L849.92,135.32L851.6,130.56L854.95,123.64L855.79,122.28L863.32,124.1L864.16,122.15L866.67,123.31L867.51,125.12L870.86,125.12L873.37,92.48L875.05,103.36L880.91,102.52L882.58,105.54L883.42,104.72L885.09,94.29L885.93,95.92L891.79,94.99L892.63,94.9L894.31,92.48L895.14,93.57L896.82,97.58L897.65,98.41L904.35,27.2L905.19,92.48L906.87,92.48L910.22,92.48L911.05,85.23L911.89,82.69L916.91,90.44L917.75,90.56L921.1,92.48L921.94,89.51L924.45,91.17L929.47,94.59L930.31,94.52L937.01,97.38L937.85,190.4L938.69,108.8L940.36,100.64L941.2,105.54L942.04,103.36L945.38,118.59L947.06,108.8L951.25,98.24L952.08,99.73L957.94,95.09L962.97,96.69L963.81,94.52L967.16,100.64L967.99,99.54L969.67,99.18L970.51,97.38L971.34,59.84L974.69,112.06L975.53,114.24L976.37,101.81L977.2,108.8L978.04,110.61L978.88,108.8L979.72,107.32L987.25,108.8L996.46,101.96L998.98,101.12L1000.65,98.83L1002.33,97.63L1004,99.01" clip-path="url(#clip5b97cdxyplot)" style="vector-effect: none; fill: none; stroke: rgb(244, 180, 0); stroke-opacity: 1; stroke-width: 1.5px; opacity: 1;"/></g><g class="points" clip-path="url(#clip5b97cdxyplot)"/><g class="text" clip-path="url(#clip5b97cdxyplot)"/></g><g class="trace scatter trace8ff4e1" style="stroke-miterlimit: 2; opacity: 1;"><g class="fills" clip-path="url(#clip5b97cdxyplot)"/><g class="errorbars"/><g class="lines"/><g class="points"><path class="point" transform="translate(1004,99.01)" d="M2,0A2,2 0 1,1 0,-2A2,2 0 0,1 2,0Z" style="opacity: 1; stroke-width: 0px; fill: rgb(244, 180, 0); fill-opacity: 1;"/></g><g class="text"/></g></g></g><g class="overplot"/><path class="xlines-above crisp" d="M0,0" style="fill: none;"/><path class="ylines-above crisp" d="M0,0" style="fill: none;"/><g class="overlines-above"/><g class="xaxislayer-above"><g class="xtick"><text text-anchor="middle" x="0" y="585" transform="translate(40,0)" style="font-family: Roboto, sans-serif; font-size: 12px; fill: rgb(95, 103, 126); fill-opacity: 1; white-space: pre; opacity: 1;">0</text></g><g class="xtick"><text text-anchor="middle" x="0" y="585" style="font-family: Roboto, sans-serif; font-size: 12px; fill: rgb(95, 103, 126); fill-opacity: 1; white-space: pre; opacity: 1;" transform="translate(207.47,0)">200</text></g><g class="xtick"><text text-anchor="middle" x="0" y="585" style="font-family: Roboto, sans-serif; font-size: 12px; fill: rgb(95, 103, 126); fill-opacity: 1; white-space: pre; opacity: 1;" transform="translate(374.95,0)">400</text></g><g class="xtick"><text text-anchor="middle" x="0" y="585" style="font-family: Roboto, sans-serif; font-size: 12px; fill: rgb(95, 103, 126); fill-opacity: 1; white-space: pre; opacity: 1;" transform="translate(542.4200000000001,0)">600</text></g><g class="xtick"><text text-anchor="middle" x="0" y="585" style="font-family: Roboto, sans-serif; font-size: 12px; fill: rgb(95, 103, 126); fill-opacity: 1; white-space: pre; opacity: 1;" transform="translate(709.89,0)">800</text></g><g class="xtick"><text text-anchor="middle" x="0" y="585" style="font-family: Roboto, sans-serif; font-size: 12px; fill: rgb(95, 103, 126); fill-opacity: 1; white-space: pre; opacity: 1;" transform="translate(877.36,0)">1000</text></g><g class="xtick"><text text-anchor="middle" x="0" y="585" style="font-family: Roboto, sans-serif; font-size: 12px; fill: rgb(95, 103, 126); fill-opacity: 1; white-space: pre; opacity: 1;" transform="translate(1044.8400000000001,0)">1200</text></g></g><g class="yaxislayer-above"><g class="ytick"><text text-anchor="end" x="27" y="4.199999999999999" transform="translate(0,532.8)" style="font-family: Roboto, sans-serif; font-size: 12px; fill: rgb(95, 103, 126); fill-opacity: 1; white-space: pre; opacity: 1;">20</text></g><g class="ytick"><text text-anchor="end" x="27" y="4.199999999999999" style="font-family: Roboto, sans-serif; font-size: 12px; fill: rgb(95, 103, 126); fill-opacity: 1; white-space: pre; opacity: 1;" transform="translate(0,467.52)">30</text></g><g class="ytick"><text text-anchor="end" x="27" y="4.199999999999999" style="font-family: Roboto, sans-serif; font-size: 12px; fill: rgb(95, 103, 126); fill-opacity: 1; white-space: pre; opacity: 1;" transform="translate(0,402.24)">40</text></g><g class="ytick"><text text-anchor="end" x="27" y="4.199999999999999" style="font-family: Roboto, sans-serif; font-size: 12px; fill: rgb(95, 103, 126); fill-opacity: 1; white-space: pre; opacity: 1;" transform="translate(0,336.96)">50</text></g><g class="ytick"><text text-anchor="end" x="27" y="4.199999999999999" style="font-family: Roboto, sans-serif; font-size: 12px; fill: rgb(95, 103, 126); fill-opacity: 1; white-space: pre; opacity: 1;" transform="translate(0,271.68)">60</text></g><g class="ytick"><text text-anchor="end" x="27" y="4.199999999999999" style="font-family: Roboto, sans-serif; font-size: 12px; fill: rgb(95, 103, 126); fill-opacity: 1; white-space: pre; opacity: 1;" transform="translate(0,206.4)">70</text></g><g class="ytick"><text text-anchor="end" x="27" y="4.199999999999999" style="font-family: Roboto, sans-serif; font-size: 12px; fill: rgb(95, 103, 126); fill-opacity: 1; white-space: pre; opacity: 1;" transform="translate(0,141.12)">80</text></g><g class="ytick"><text text-anchor="end" x="27" y="4.199999999999999" style="font-family: Roboto, sans-serif; font-size: 12px; fill: rgb(95, 103, 126); fill-opacity: 1; white-space: pre; opacity: 1;" transform="translate(0,75.84)">90</text></g></g><g class="overaxes-above"/></g></g><g class="polarlayer"/><g class="smithlayer"/><g class="ternarylayer"/><g class="geolayer"/><g class="funnelarealayer"/><g class="pielayer"/><g class="iciclelayer"/><g class="treemaplayer"/><g class="sunburstlayer"/><g class="glimages"/><defs id="topdefs-5b97cd"><g class="clips"/></defs><g class="layer-above"><g class="imagelayer"/><g class="shapelayer"/></g><g class="infolayer"><g class="g-gtitle"/><g class="g-xtitle"/><g class="g-ytitle"/></g></svg>