<svg class="main-svg" xmlns="http://www.w3.org/2000/svg" xmlns:xlink="http://www.w3.org/1999/xlink" width="1200" height="600" style="" viewBox="0 0 1200 600"><rect x="0" y="0" width="1200" height="600" style="fill: rgb(255, 255, 255); fill-opacity: 1;"/><defs id="defs-353e8c"><g class="clips"><clipPath id="clip353e8cxyplot" class="plotclip"><rect width="1060" height="544"/></clipPath><clipPath class="axesclip" id="clip353e8cx"><rect x="40" y="0" width="1060" height="600"/></clipPath><clipPath class="axesclip" id="clip353e8cy"><rect x="0" y="16" width="1200" height="544"/></clipPath><clipPath class="axesclip" id="clip353e8cxy"><rect x="40" y="16" width="1060" height="544"/></clipPath></g><g class="gradients"/><g class="patterns"/></defs><g class="bglayer"/><g class="layer-below"><g class="imagelayer"/><g class="shapelayer"/></g><g class="cartesianlayer"><g class="subplot xy"><g class="layer-subplot"><g class="shapelayer"/><g class="imagelayer"/></g><g class="minor-gridlayer"><g class="x"/><g class="y"/></g><g class="gridlayer"><g class="x"><path class="xgrid crisp" transform="translate(207.89,0)" d="M0,16v544" style="stroke: rgb(238, 238, 238); stroke-opacity: 1; stroke-width: 1px;"/><path class="xgrid crisp" transform="translate(375.79,0)" d="M0,16v544" style="stroke: rgb(238, 238, 238); stroke-opacity: 1; stroke-width: 1px;"/><path class="xgrid crisp" transform="translate(543.6800000000001,0)" d="M0,16v544" style="stroke: rgb(238, 238, 238); stroke-opacity: 1; stroke-width: 1px;"/><path class="xgrid crisp" transform="translate(711.57,0)" d="M0,16v544" style="stroke: rgb(238, 238, 238); stroke-opacity: 1; stroke-width: 1px;"/><path class="xgrid crisp" transform="translate(879.46,0)" d="M0,16v544" style="stroke: rgb(238, 238, 238); stroke-opacity: 1; stroke-width: 1px;"/><path class="xgrid crisp" transform="translate(1047.3600000000001,0)" d="M0,16v544" style="stroke: rgb(238, 238, 238); stroke-opacity: 1; stroke-width: 1px;"/></g><g class="y"><path class="ygrid crisp" transform="translate(0,539.42)" d="M40,0h1060" style="stroke: rgb(238, 238, 238); stroke-opacity: 1; stroke-width: 1px;"/><path class="ygrid crisp" transform="translate(0,460.02)" d="M40,0h1060" style="stroke: rgb(238, 238, 238); stroke-opacity: 1; stroke-width: 1px;"/><path class="ygrid crisp" transform="translate(0,380.63)" d="M40,0h1060" style="stroke: rgb(238, 238, 238); stroke-opacity: 1; stroke-width: 1px;"/><path class="ygrid crisp" transform="translate(0,301.23)" d="M40,0h1060" style="stroke: rgb(238, 238, 238); stroke-opacity: 1; stroke-width: 1px;"/><path class="ygrid crisp" transform="translate(0,221.84)" d="M40,0h1060" style="stroke: rgb(238, 238, 238); stroke-opacity: 1; stroke-width: 1px;"/><path class="ygrid crisp" transform="translate(0,142.44)" d="M40,0h1060" style="stroke: rgb(238, 238, 238); stroke-opacity: 1; stroke-width: 1px;"/><path class="ygrid crisp" transform="translate(0,63.05)" d="M40,0h1060" style="stroke: rgb(238, 238, 238); stroke-opacity: 1; stroke-width: 1px;"/></g></g><g class="zerolinelayer"><path class="xzl zl crisp" transform="translate(40,0)" d="M0,16v544" style="stroke: rgb(238, 238, 238); stroke-opacity: 1; stroke-width: 1px;"/></g><g class="layer-between"><g class="shapelayer"/><g class="imagelayer"/></g><path class="xlines-below"/><path class="ylines-below"/><g class="overlines-below"/><g class="xaxislayer-below"/><g class="yaxislayer-below"/><g class="overaxes-below"/><g class="plot" transform="translate(40,16)"><g class="scatterlayer mlayer"><g class="trace scatter trace690120" style="stroke-miterlimit: 2; opacity: 1;"><g class="fills" clip-path="url(#clip353e8cxyplot)"/><g class="errorbars"/><g class="lines"><path class="js-line" d="M0,473.79L3.36,478.76L6.72,516.8L10.07,496.12L13.43,487.69L16.79,480.41L20.15,465.29L30.22,443.03L33.58,414.25L36.94,409.29L40.29,424.17L43.65,421.69L47.01,436.08L53.73,417.08L57.08,415.49L60.44,416.45L63.8,414.25L67.16,473.79L70.52,434.1L73.87,450.64L77.23,446.5L80.59,440.05L83.95,435.75L87.3,425.59L90.66,422.93L94.02,417.56L97.38,414.25L100.74,295.16L104.09,334.85L107.45,344.78L110.81,364.63L114.17,354.7L117.53,348.09L120.88,334.85L124.24,332.37L127.6,335.96L130.96,330.88L134.31,275.31L137.67,275.31L141.03,252.15L144.39,235.61L147.75,251.49L151.1,250.5L154.46,239.86L157.82,249.26L161.18,252.15L164.54,247.52L167.89,225.69L171.25,225.69L174.61,228.99L177.97,225.69L181.32,229.66L184.68,219.07L188.04,224.27L191.4,221.96L194.76,220.17L198.11,216.75L201.47,225.69L204.83,185.99L208.19,209.15L211.55,210.8L214.9,203.85L218.26,194.26L221.62,198.75L224.98,200.88L228.33,197.02L231.69,195.91L235.05,195.91L238.41,220.72L241.77,215.76L245.12,218.24L255.2,184.57L258.56,185.99L261.91,190.4L265.27,188.97L268.63,185.99L271.99,146.29L275.34,169.45L278.7,178.55L282.06,178.05L285.42,184.34L288.78,181.74L292.13,183.51L295.49,183.78L298.85,174.08L302.21,116.52L305.57,86.75L308.92,93.36L312.28,94.19L315.64,106.59L319,114.86L325.71,122.72L329.07,126.44L332.43,126.44L335.79,86.75L339.14,121.48L342.5,123.14L345.86,126.44L349.22,124.46L352.58,124.79L355.93,129.28L359.29,126.44L362.65,134.16L366.01,138.35L369.36,176.06L372.72,161.18L376.08,159.52L379.44,143.81L382.8,150.26L386.15,144.64L389.51,142.04L392.87,133.89L396.23,128.65L399.59,126.44L402.94,185.99L406.3,185.99L409.66,166.14L413.02,161.18L416.37,172.1L419.73,161.18L423.09,161.89L429.81,162.83L433.16,152.25L436.52,166.14L439.88,136.37L443.24,126.44L446.6,123.96L449.95,114.53L453.31,119.83L456.67,122.19L460.03,122.72L463.38,126.44L466.74,138.35L470.1,126.44L473.46,121.48L476.82,133.06L480.17,128.92L486.89,124.79L490.25,125.03L496.96,137.47L500.32,128.43L503.68,195.91L507.04,181.03L513.75,171.1L517.11,176.06L523.83,146.29L527.18,138.85L533.9,134.38L537.26,146.29L540.62,126.44L543.97,90.05L547.33,101.63L550.69,100.64L554.05,99.98L557.4,98.09L560.76,89.23L564.12,93.36L567.48,88.73L570.84,27.2L574.19,42.09L577.55,47.05L580.91,61.94L584.27,53L587.63,56.97L590.98,58.39L597.7,71.31L601.06,79.8L604.41,156.22L607.77,101.63L611.13,103.29L614.49,91.71L617.85,90.72L621.2,95.02L624.56,89.58L627.92,102.87L631.28,98.88L634.64,100.64L644.71,60.28L648.07,59.45L651.42,60.94L654.78,73.51L661.5,84.26L664.86,82.34L668.21,76.82L671.57,156.22L674.93,116.52L678.29,136.37L681.65,136.37L685,124.46L688.36,123.14L691.72,130.7L695.08,132.65L698.43,127.55L705.15,116.52L708.51,76.82L711.87,99.98L715.22,99.15L718.58,100.64L721.94,88.4L725.3,92.42L728.66,94.19L732.01,97.77L735.37,94.69L738.73,47.05L742.09,61.94L745.44,83.44L748.8,81.78L752.16,82.78L755.52,90.05L758.88,95.25L762.23,104.11L765.59,109.9L768.95,117.51L772.31,146.29L775.67,116.52L779.02,103.29L782.38,86.75L785.74,84.76L789.1,78.48L792.45,72.57L795.81,75.58L799.17,71.31L802.53,64.91L805.89,66.9L809.24,66.9L815.96,66.9L819.32,72.85L822.68,73.51L826.03,79.66L829.39,79.3L832.75,72.41L836.11,70.87L839.46,146.29L842.82,76.82L846.18,63.59L849.54,59.45L852.9,53L856.25,52.01L859.61,48.47L862.97,53.25L866.33,54.77L869.69,56.97L873.04,37.12L876.4,37.12L879.76,27.2L883.12,37.12L886.47,35.14L889.83,43.74L893.19,47.05L896.55,60.69L899.91,55.87L903.26,52.01L906.62,27.2L909.98,47.05L913.34,60.28L920.05,58.96L923.41,56.97L926.77,52.72L930.13,56.97L933.48,54.77L936.84,55.98L940.2,76.82L943.56,71.86L946.92,83.44L950.27,69.38L953.63,70.87L956.99,73.51L960.35,71.15L963.71,65.66L967.06,65.79L970.42,66.9L973.78,116.52L977.14,86.75L980.49,90.05L983.85,84.26L987.21,66.9L990.57,58.63L993.93,51.3L997.28,47.05L1000.64,50.36L1004,50.03" clip-path="url(#clip353e8cxyplot)" style="vector-effect: none; fill: none; stroke: rgb(244, 180, 0); stroke-opacity: 1; stroke-width: 1.5px; opacity: 1;"/></g><g class="points" clip-path="url(#clip353e8cxyplot)"/><g class="text" clip-path="url(#clip353e8cxyplot)"/></g><g class="trace scatter trace77cd18" style="stroke-miterlimit: 2; opacity: 1;"><g class="fills" clip-path="url(#clip353e8cxyplot)"/><g class="errorbars"/><g class="lines"/><g class="points"><path class="point" transform="translate(1004,50.03)" d="M2,0A2,2 0 1,1 0,-2A2,2 0 0,1 2,0Z" style="opacity: 1; stroke-width: 0px; fill: rgb(244, 180, 0); fill-opacity: 1;"/></g><g class="text"/></g></g></g><g class="overplot"/><path class="xlines-above crisp" d="M0,0" style="fill: none;"/><path class="ylines-above crisp" d="M0,0" style="fill: none;"/><g class="overlines-above"/><g class="xaxislayer-above"><g class="xtick"><text text-anchor="middle" x="0" y="585" transform="translate(40,0)" style="font-family: Roboto, sans-serif; font-size: 12px; fill: rgb(95, 103, 126); fill-opacity: 1; white-space: pre; opacity: 1;">0</text></g><g class="xtick"><text text-anchor="middle" x="0" y="585" style="font-family: Roboto, sans-serif; font-size: 12px; fill: rgb(95, 103, 126); fill-opacity: 1; white-space: pre; opacity: 1;" transform="translate(207.89,0)">50</text></g><g class="xtick"><text text-anchor="middle" x="0" y="585" style="font-family: Roboto, sans-serif; font-size: 12px; fill: rgb(95, 103, 126); fill-opacity: 1; white-space: pre; opacity: 1;" transform="translate(375.79,0)">100</text></g><g class="xtick"><text text-anchor="middle" x="0" y="585" style="font-family: Roboto, sans-serif; font-size: 12px; fill: rgb(95, 103, 126); fill-opacity: 1; white-space: pre; opacity: 1;" transform="translate(543.6800000000001,0)">150</text></g><g class="xtick"><text text-anchor="middle" x="0" y="585" style="font-family: Roboto, sans-serif; font-size: 12px; fill: rgb(95, 103, 126); fill-opacity: 1; white-space: pre; opacity: 1;" transform="translate(711.57,0)">200</text></g><g class="xtick"><text text-anchor="middle" x="0" y="585" style="font-family: Roboto, sans-serif; font-size: 12px; fill: rgb(95, 103, 126); fill-opacity: 1; white-space: pre; opacity: 1;" transform="translate(879.46,0)">250</text></g><g class="xtick"><text text-anchor="middle" x="0" y="585" style="font-family: Roboto, sans-serif; font-size: 12px; fill: rgb(95, 103, 126); fill-opacity: 1; white-space: pre; opacity: 1;" transform="translate(1047.3600000000001,0)">300</text></g></g><g class="yaxislayer-above"><g class="ytick"><text text-anchor="end" x="27" y="4.199999999999999" transform="translate(0,539.42)" style="font-family: Roboto, sans-serif; font-size: 12px; fill: rgb(95, 103, 126); fill-opacity: 1; white-space: pre; opacity: 1;">20</text></g><g class="ytick"><text text-anchor="end" x="27" y="4.199999999999999" style="font-family: Roboto, sans-serif; font-size: 12px; fill: rgb(95, 103, 126); fill-opacity: 1; white-space: pre; opacity: 1;" transform="translate(0,460.02)">30</text></g><g class="ytick"><text text-anchor="end" x="27" y="4.199999999999999" style="font-family: Roboto, sans-serif; font-size: 12px; fill: rgb(95, 103, 126); fill-opacity: 1; white-space: pre; opacity: 1;" transform="translate(0,380.63)">40</text></g><g class="ytick"><text text-anchor="end" x="27" y="4.199999999999999" style="font-family: Roboto, sans-serif; font-size: 12px; fill: rgb(95, 103, 126); fill-opacity: 1; white-space: pre; opacity: 1;" transform="translate(0,301.23)">50</text></g><g class="ytick"><text text-anchor="end" x="27" y="4.199999999999999" style="font-family: Roboto, sans-serif; font-size: 12px; fill: rgb(95, 103, 126); fill-opacity: 1; white-space: pre; opacity: 1;" transform="translate(0,221.84)">60</text></g><g class="ytick"><text text-anchor="end" x="27" y="4.199999999999999" style="font-family: Roboto, sans-serif; font-size: 12px; fill: rgb(95, 103, 126); fill-opacity: 1; white-space: pre; opacity: 1;" transform="translate(0,142.44)">70</text></g><g class="ytick"><text text-anchor="end" x="27" y="4.199999999999999" style="font-family: Roboto, sans-serif; font-size: 12px; fill: rgb(95, 103, 126); fill-opacity: 1; white-space: pre; opacity: 1;" transform="translate(0,63.05)">80</text></g></g><g class="overaxes-above"/></g></g><g class="polarlayer"/><g class="smithlayer"/><g class="ternarylayer"/><g class="geolayer"/><g class="funnelarealayer"/><g class="pielayer"/><g class="iciclelayer"/><g class="treemaplayer"/><g class="sunburstlayer"/><g class="glimages"/><defs id="topdefs-353e8c"><g class="clips"/></defs><g class="layer-above"><g class="imagelayer"/><g class="shapelayer"/></g><g class="infolayer"><g class="g-gtitle"/><g class="g-xtitle"/><g class="g-ytitle"/></g></svg>