<svg class="main-svg" xmlns="http://www.w3.org/2000/svg" xmlns:xlink="http://www.w3.org/1999/xlink" width="1200" height="600" style="" viewBox="0 0 1200 600"><rect x="0" y="0" width="1200" height="600" style="fill: rgb(255, 255, 255); fill-opacity: 1;"/><defs id="defs-2f1625"><g class="clips"><clipPath id="clip2f1625xyplot" class="plotclip"><rect width="1051" height="544"/></clipPath><clipPath class="axesclip" id="clip2f1625x"><rect x="49" y="0" width="1051" height="600"/></clipPath><clipPath class="axesclip" id="clip2f1625y"><rect x="0" y="16" width="1200" height="544"/></clipPath><clipPath class="axesclip" id="clip2f1625xy"><rect x="49" y="16" width="1051" height="544"/></clipPath></g><g class="gradients"/><g class="patterns"/></defs><g class="bglayer"/><g class="layer-below"><g class="imagelayer"/><g class="shapelayer"/></g><g class="cartesianlayer"><g class="subplot xy"><g class="layer-subplot"><g class="shapelayer"/><g class="imagelayer"/></g><g class="minor-gridlayer"><g class="x"/><g class="y"/></g><g class="gridlayer"><g class="x"><path class="xgrid crisp" transform="translate(220.63,0)" d="M0,16v544" style="stroke: rgb(238, 238, 238); stroke-opacity: 1; stroke-width: 1px;"/><path class="xgrid crisp" transform="translate(392.26,0)" d="M0,16v544" style="stroke: rgb(238, 238, 238); stroke-opacity: 1; stroke-width: 1px;"/><path class="xgrid crisp" transform="translate(563.89,0)" d="M0,16v544" style="stroke: rgb(238, 238, 238); stroke-opacity: 1; stroke-width: 1px;"/><path class="xgrid crisp" transform="translate(735.52,0)" d="M0,16v544" style="stroke: rgb(238, 238, 238); stroke-opacity: 1; stroke-width: 1px;"/><path class="xgrid crisp" transform="translate(907.15,0)" d="M0,16v544" style="stroke: rgb(238, 238, 238); stroke-opacity: 1; stroke-width: 1px;"/><path class="xgrid crisp" transform="translate(1078.78,0)" d="M0,16v544" style="stroke: rgb(238, 238, 238); stroke-opacity: 1; stroke-width: 1px;"/></g><g class="y"><path class="ygrid crisp" transform="translate(0,523.9)" d="M49,0h1051" style="stroke: rgb(238, 238, 238); stroke-opacity: 1; stroke-width: 1px;"/><path class="ygrid crisp" transform="translate(0,484.11)" d="M49,0h1051" style="stroke: rgb(238, 238, 238); stroke-opacity: 1; stroke-width: 1px;"/><path class="ygrid crisp" transform="translate(0,444.83)" d="M49,0h1051" style="stroke: rgb(238, 238, 238); stroke-opacity: 1; stroke-width: 1px;"/><path class="ygrid crisp" transform="translate(0,406.04)" d="M49,0h1051" style="stroke: rgb(238, 238, 238); stroke-opacity: 1; stroke-width: 1px;"/><path class="ygrid crisp" transform="translate(0,367.74)" d="M49,0h1051" style="stroke: rgb(238, 238, 238); stroke-opacity: 1; stroke-width: 1px;"/><path class="ygrid crisp" transform="translate(0,329.9)" d="M49,0h1051" style="stroke: rgb(238, 238, 238); stroke-opacity: 1; stroke-width: 1px;"/><path class="ygrid crisp" transform="translate(0,292.52)" d="M49,0h1051" style="stroke: rgb(238, 238, 238); stroke-opacity: 1; stroke-width: 1px;"/><path class="ygrid crisp" transform="translate(0,255.59)" d="M49,0h1051" style="stroke: rgb(238, 238, 238); stroke-opacity: 1; stroke-width: 1px;"/><path class="ygrid crisp" transform="translate(0,219.1)" d="M49,0h1051" style="stroke: rgb(238, 238, 238); stroke-opacity: 1; stroke-width: 1px;"/><path class="ygrid crisp" transform="translate(0,183.03)" d="M49,0h1051" style="stroke: rgb(238, 238, 238); stroke-opacity: 1; stroke-width: 1px;"/><path class="ygrid crisp" transform="translate(0,147.39)" d="M49,0h1051" style="stroke: rgb(238, 238, 238); stroke-opacity: 1; stroke-width: 1px;"/><path class="ygrid crisp" transform="translate(0,112.15)" d="M49,0h1051" style="stroke: rgb(238, 238, 238); stroke-opacity: 1; stroke-width: 1px;"/><path class="ygrid crisp" transform="translate(0,77.3)" d="M49,0h1051" style="stroke: rgb(238, 238, 238); stroke-opacity: 1; stroke-width: 1px;"/><path class="ygrid crisp" transform="translate(0,42.85)" d="M49,0h1051" style="stroke: rgb(238, 238, 238); stroke-opacity: 1; stroke-width: 1px;"/></g></g><g class="zerolinelayer"><path class="xzl zl crisp" transform="translate(49,0)" d="M0,16v544" style="stroke: rgb(238, 238, 238); stroke-opacity: 1; stroke-width: 1px;"/></g><g class="layer-between"><g class="shapelayer"/><g class="imagelayer"/></g><path class="xlines-below"/><path class="ylines-below"/><g class="overlines-below"/><g class="xaxislayer-below"/><g class="yaxislayer-below"/><g class="overaxes-below"/><g class="plot" transform="translate(49,16)"><g class="scatterlayer mlayer"><g class="trace scatter trace089192" style="stroke-miterlimit: 2; opacity: 1;"><g class="fills" clip-path="url(#clip2f1625xyplot)"/><g class="errorbars"/><g class="lines"><path class="js-line" d="M0,57.78L34.33,27.2L68.65,84.17L102.98,194.02L137.3,198.78L171.63,247.93L205.96,219.01L240.28,265.29L274.61,276.9L308.93,328.08L343.26,361.32L377.58,265.07L411.91,283.23L446.24,394.75L480.56,403.3L514.89,376.31L549.21,333.94L583.54,515.97L617.87,374.94L652.19,444.82L686.52,256.73L720.84,473.14L755.17,493.91L789.49,429.59L823.82,516.8L858.15,457.75L892.47,451.76L926.8,490.27L961.12,484.61L995.45,433.37" clip-path="url(#clip2f1625xyplot)" style="vector-effect: none; fill: none; stroke: rgb(222, 235, 248); stroke-opacity: 1; stroke-width: 1.5px; opacity: 1;"/></g><g class="points" clip-path="url(#clip2f1625xyplot)"/><g class="text" clip-path="url(#clip2f1625xyplot)"/></g><g class="trace scatter trace9e2834" style="stroke-miterlimit: 2; opacity: 1;"><g class="fills" clip-path="url(#clip2f1625xyplot)"/><g class="errorbars"/><g class="lines"><path class="js-line" d="M0,57.78L34.33,27.2L68.65,84.17L102.98,194.02L137.3,198.78L171.63,247.93L205.96,219.01L240.28,265.29L274.61,276.9L308.93,328.08L343.26,361.32L377.58,265.07L411.91,283.23L446.24,394.75L480.56,403.3L514.89,376.31L549.21,333.94L583.54,515.97L617.87,374.94L652.19,444.82L686.52,256.73L720.84,473.14L755.17,493.91L789.49,429.59L823.82,516.8L858.15,457.75L892.47,451.76L926.8,490.27L961.12,484.61L995.45,433.37" clip-path="url(#clip2f1625xyplot)" style="vector-effect: none; fill: none; stroke: rgb(88, 153, 218); stroke-opacity: 1; stroke-width: 1.5px; opacity: 1;"/></g><g class="points" clip-path="url(#clip2f1625xyplot)"/><g class="text" clip-path="url(#clip2f1625xyplot)"/></g><g class="trace scatter tracef3cae0" style="stroke-miterlimit: 2; opacity: 1;"><g class="fills" clip-path="url(#clip2f1625xyplot)"/><g class="errorbars"/><g class="lines"/><g class="points"><path class="point" transform="translate(995.45,433.37)" d="M2,0A2,2 0 1,1 0,-2A2,2 0 0,1 2,0Z" style="opacity: 1; stroke-width: 0px; fill: rgb(88, 153, 218); fill-opacity: 1;"/></g><g class="text"/></g></g></g><g class="overplot"/><path class="xlines-above crisp" d="M0,0" style="fill: none;"/><path class="ylines-above crisp" d="M0,0" style="fill: none;"/><g class="overlines-above"/><g class="xaxislayer-above"><g class="xtick"><text text-anchor="middle" x="0" y="585" transform="translate(49,0)" style="font-family: Roboto, sans-serif; font-size: 12px; fill: rgb(95, 103, 126); fill-opacity: 1; white-space: pre; opacity: 1;">0</text></g><g class="xtick"><text text-anchor="middle" x="0" y="585" style="font-family: Roboto, sans-serif; font-size: 12px; fill: rgb(95, 103, 126); fill-opacity: 1; white-space: pre; opacity: 1;" transform="translate(220.63,0)">50</text></g><g class="xtick"><text text-anchor="middle" x="0" y="585" style="font-family: Roboto, sans-serif; font-size: 12px; fill: rgb(95, 103, 126); fill-opacity: 1; white-space: pre; opacity: 1;" transform="translate(392.26,0)">100</text></g><g class="xtick"><text text-anchor="middle" x="0" y="585" style="font-family: Roboto, sans-serif; font-size: 12px; fill: rgb(95, 103, 126); fill-opacity: 1; white-space: pre; opacity: 1;" transform="translate(563.89,0)">150</text></g><g class="xtick"><text text-anchor="middle" x="0" y="585" style="font-family: Roboto, sans-serif; font-size: 12px; fill: rgb(95, 103, 126); fill-opacity: 1; white-space: pre; opacity: 1;" transform="translate(735.52,0)">200</text></g><g class="xtick"><text text-anchor="middle" x="0" y="585" style="font-family: Roboto, sans-serif; font-size: 12px; fill: rgb(95, 103, 126); fill-opacity: 1; white-space: pre; opacity: 1;" transform="translate(907.15,0)">250</text></g><g class="xtick"><text text-anchor="middle" x="0" y="585" style="font-family: Roboto, sans-serif; font-size: 12px; fill: rgb(95, 103, 126); fill-opacity: 1; white-space: pre; opacity: 1;" transform="translate(1078.78,0)">300</text></g></g><g class="yaxislayer-above"><g class="ytick"><text text-anchor="end" x="36" y="4.199999999999999" transform="translate(0,523.9)" style="font-family: Roboto, sans-serif; font-size: 12px; fill: rgb(95, 103, 126); fill-opacity: 1; white-space: pre; opacity: 1;">3.85</text></g><g class="ytick"><text text-anchor="end" x="36" y="4.199999999999999" style="font-family: Roboto, sans-serif; font-size: 12px; fill: rgb(95, 103, 126); fill-opacity: 1; white-space: pre; opacity: 1;" transform="translate(0,484.11)">3.9</text></g><g class="ytick"><text text-anchor="end" x="36" y="4.199999999999999" style="font-family: Roboto, sans-serif; font-size: 12px; fill: rgb(95, 103, 126); fill-opacity: 1; white-space: pre; opacity: 1;" transform="translate(0,444.83)">3.95</text></g><g class="ytick"><text text-anchor="end" x="36" y="4.199999999999999" style="font-family: Roboto, sans-serif; font-size: 12px; fill: rgb(95, 103, 126); fill-opacity: 1; white-space: pre; opacity: 1;" transform="translate(0,406.04)">4</text></g><g class="ytick"><text text-anchor="end" x="36" y="4.199999999999999" style="font-family: Roboto, sans-serif; font-size: 12px; fill: rgb(95, 103, 126); fill-opacity: 1; white-space: pre; opacity: 1;" transform="translate(0,367.74)">4.05</text></g><g class="ytick"><text text-anchor="end" x="36" y="4.199999999999999" style="font-family: Roboto, sans-serif; font-size: 12px; fill: rgb(95, 103, 126); fill-opacity: 1; white-space: pre; opacity: 1;" transform="translate(0,329.9)">4.1</text></g><g class="ytick"><text text-anchor="end" x="36" y="4.199999999999999" style="font-family: Roboto, sans-serif; font-size: 12px; fill: rgb(95, 103, 126); fill-opacity: 1; white-space: pre; opacity: 1;" transform="translate(0,292.52)">4.15</text></g><g class="ytick"><text text-anchor="end" x="36" y="4.199999999999999" style="font-family: Roboto, sans-serif; font-size: 12px; fill: rgb(95, 103, 126); fill-opacity: 1; white-space: pre; opacity: 1;" transform="translate(0,255.59)">4.2</text></g><g class="ytick"><text text-anchor="end" x="36" y="4.199999999999999" style="font-family: Roboto, sans-serif; font-size: 12px; fill: rgb(95, 103, 126); fill-opacity: 1; white-space: pre; opacity: 1;" transform="translate(0,219.1)">4.25</text></g><g class="ytick"><text text-anchor="end" x="36" y="4.199999999999999" style="font-family: Roboto, sans-serif; font-size: 12px; fill: rgb(95, 103, 126); fill-opacity: 1; white-space: pre; opacity: 1;" transform="translate(0,183.03)">4.3</text></g><g class="ytick"><text text-anchor="end" x="36" y="4.199999999999999" style="font-family: Roboto, sans-serif; font-size: 12px; fill: rgb(95, 103, 126); fill-opacity: 1; white-space: pre; opacity: 1;" transform="translate(0,147.39)">4.35</text></g><g class="ytick"><text text-anchor="end" x="36" y="4.199999999999999" style="font-family: Roboto, sans-serif; font-size: 12px; fill: rgb(95, 103, 126); fill-opacity: 1; white-space: pre; opacity: 1;" transform="translate(0,112.15)">4.4</text></g><g class="ytick"><text text-anchor="end" x="36" y="4.199999999999999" style="font-family: Roboto, sans-serif; font-size: 12px; fill: rgb(95, 103, 126); fill-opacity: 1; white-space: pre; opacity: 1;" transform="translate(0,77.3)">4.45</text></g><g class="ytick"><text text-anchor="end" x="36" y="4.199999999999999" style="font-family: Roboto, sans-serif; font-size: 12px; fill: rgb(95, 103, 126); fill-opacity: 1; white-space: pre; opacity: 1;" transform="translate(0,42.85)">4.5</text></g></g><g class="overaxes-above"/></g></g><g class="polarlayer"/><g class="smithlayer"/><g class="ternarylayer"/><g class="geolayer"/><g class="funnelarealayer"/><g class="pielayer"/><g class="iciclelayer"/><g class="treemaplayer"/><g class="sunburstlayer"/><g class="glimages"/><defs id="topdefs-2f1625"><g class="clips"/></defs><g class="layer-above"><g class="imagelayer"/><g class="shapelayer"/></g><g class="infolayer"><g class="g-gtitle"/><g class="g-xtitle"/><g class="g-ytitle"/></g></svg>